<?xml version="1.0" encoding="UTF-8" standalone="no"?>
<!DOCTYPE svg PUBLIC "-//W3C//DTD SVG 1.1//EN" "http://www.w3.org/Graphics/SVG/1.1/DTD/svg11.dtd">
<svg width="100%" height="100%" viewBox="0 0 1024 1024" version="1.1" xmlns="http://www.w3.org/2000/svg" xmlns:xlink="http://www.w3.org/1999/xlink" xml:space="preserve" xmlns:serif="http://www.serif.com/" style="fill-rule:evenodd;clip-rule:evenodd;stroke-linecap:round;stroke-linejoin:round;stroke-miterlimit:1.5;">
    <path d="M219.486,761.182C218.607,757.143 218.505,752.45 219.521,746.694C221.726,734.208 246.281,601.55 249.767,581.833C253.254,562.115 276.424,448.382 278.146,440.916C279.869,433.45 286.398,422.904 294.115,417.433C301.833,411.962 310.581,407.835 321.936,408.145C333.292,408.455 411.942,414.87 469.737,414.151C541.106,413.262 631.06,394.859 647.372,394.783C647.411,394.782 647.449,394.782 647.486,394.783C647.669,394.783 647.843,394.786 648.007,394.791C652.311,394.923 656.024,395.594 659.242,396.591C693.488,403.929 760.88,430.689 768.052,437.323C776.183,444.844 781.688,457.881 783.8,469.671C785.912,481.461 800.048,815.466 799.931,844.934C799.814,874.401 791.23,889.263 777.819,900.489C770.521,906.599 757.649,923.164 715.976,919.97C654.28,915.24 289.724,888.963 278.742,888.048C268.846,887.224 256.811,886.345 246.481,876.366C237.12,867.323 236.951,858.453 234.084,849.185C230.182,836.569 218.792,761.802 218.792,761.802C218.792,761.802 219.027,761.592 219.486,761.182ZM595.44,80.505C647.799,90.368 668.388,101.338 674.796,105.633C682.095,110.526 691.551,117.322 690.692,124.618C689.987,130.614 686.284,143.93 683.999,163.067C678.43,209.702 675.655,213.391 674.796,260.32C674.753,262.576 674.84,309.446 674.796,311.702C674.691,317.133 674.895,343.036 674.796,348.468C693.848,344.878 707.241,334.211 750.072,346.497C764.146,350.534 772.808,355.732 778.367,369.004C780.785,382.667 778.905,385.665 775.951,394.784C773.527,402.268 766.694,410.279 759.93,414.212C757.778,414.217 709.846,395.019 664.691,394.784C529.788,394.081 291.422,408.089 291.008,407.993C274.052,403.531 245.538,390.991 233.125,378.812L231.121,376.882C224.847,370.351 225.245,364.902 226.983,355.944C227.927,351.078 233.794,346.751 239.445,346.062C247.404,345.091 261.487,346.031 276.514,346.902C286.428,347.63 324.321,354.442 330.089,354.875C329.801,336.99 329.664,300.874 329.325,282.99C329.27,280.093 323.433,182.985 315.069,138.216C311.706,120.062 309.181,120.666 315.212,114.069C319.988,108.846 344.481,97.462 349.399,95.829C373.334,87.884 404.398,77.794 470.543,72.485C499.823,70.136 552.319,72.382 595.44,80.505Z" style="fill:white;fill-opacity:0.75;stroke:white;stroke-opacity:0.75;stroke-width:33px;"/>
    <g>
        <path d="M218.792,761.802C218.792,761.802 230.182,836.569 234.084,849.185C236.951,858.453 236.014,860.269 247.848,875.525C253.496,882.805 269.285,885.158 278.742,888.048C289.281,891.269 654.28,915.24 715.976,919.97C757.649,923.164 770.521,906.599 777.819,900.489C791.23,889.263 799.814,874.401 799.931,844.934C800.048,815.466 785.912,481.461 783.8,469.671C781.688,457.881 776.183,444.844 768.052,437.323C759.921,429.802 674.391,396.414 647.507,394.784" style="fill:rgb(98,106,112);"/>
        <path d="M229.902,787.769L256.492,790.72L271.068,884.246L234.981,865.283L229.902,787.769Z" style="fill:rgb(110,116,122);"/>
        <path d="M690.473,443.646L780.714,466.631L767.583,434.461L733.905,428.046L701.486,414.679L686.975,414.151L690.473,443.646Z" style="fill:rgb(110,116,122);"/>
        <path d="M642.571,808.234L723.613,920.375L762.448,909.333L792.051,884.246L799.932,844.583L684.525,759.309L672.12,781.931L656.019,803.639L642.571,808.234Z" style="fill:rgb(76,84,93);"/>
        <path d="M218.792,761.802C218.792,761.802 230.182,836.569 234.084,849.185C236.951,858.453 237.12,867.323 246.481,876.366C256.811,886.345 268.846,887.224 278.742,888.048C289.724,888.963 654.28,915.24 715.976,919.97C757.649,923.164 770.521,906.599 777.819,900.489C791.23,889.263 799.814,874.401 799.931,844.934C800.048,815.466 785.912,481.461 783.8,469.671C781.688,457.881 776.183,444.844 768.052,437.323C759.921,429.802 674.391,396.414 647.507,394.784" style="fill:none;stroke:rgb(21,27,32);stroke-width:25px;"/>
        <path d="M249.767,581.833C253.254,562.115 276.424,448.382 278.146,440.916C279.869,433.45 286.398,422.904 294.115,417.433C301.833,411.962 310.581,407.835 321.936,408.145C333.292,408.455 440.658,415.257 473.554,415.941C497.747,416.444 633.554,394.346 648.007,394.791C665.144,395.318 672.91,404.386 677.43,408.558C685.149,415.683 687.666,424.954 687.676,438.463C687.686,451.972 686.084,584.103 685.826,597.957C685.568,611.811 683.924,751.29 683.256,762.212C682.587,773.134 676.613,783.149 669.733,792.22C662.853,801.292 656.076,806.904 626.067,808.138C598.879,809.255 478.922,800.338 455.352,799.108C431.783,797.878 256.646,788.885 246.181,785.967C237.519,783.552 230.811,781.03 225.209,773.32C220.375,766.666 217.316,759.18 219.521,746.694C221.726,734.208 246.281,601.55 249.767,581.833Z" style="fill:rgb(232,230,225);"/>
        <path d="M282.618,429.803L304.127,412.964L233.145,778.958L216.057,762.72L223.217,707.205L263.03,502.712L282.618,429.803Z" style="fill:white;fill-opacity:0.55;"/>
        <path d="M281.004,431.084C281.004,431.084 312.58,432.265 323.243,433.399C340.074,435.19 421.495,447.94 470.672,446.554C539.88,444.604 615.994,425.82 634.509,422.131C664.039,416.246 674.796,409.305 674.796,409.305L653.095,391.004L586.686,399.077L501.847,407.034L456.307,408.596L366.862,406.683L327.133,407.091L287.82,414.151L281.004,431.084Z" style="fill-opacity:0.28;"/>
        <path d="M249.767,581.833C253.254,562.115 276.424,448.382 278.146,440.916C279.869,433.45 286.398,422.904 294.115,417.433C301.833,411.962 310.581,407.835 321.936,408.145C333.292,408.455 411.942,414.87 469.737,414.151C542.094,413.25 633.554,394.346 648.007,394.791C665.144,395.318 672.91,404.386 677.43,408.558C685.149,415.683 687.666,424.954 687.676,438.463C687.686,451.972 686.084,584.103 685.826,597.957C685.568,611.811 683.924,751.29 683.256,762.212C682.587,773.134 676.613,783.149 669.733,792.22C662.853,801.292 656.076,806.904 626.067,808.138C598.879,809.255 478.922,800.338 455.352,799.108C431.783,797.878 256.646,788.885 246.181,785.967C237.519,783.552 230.811,781.03 225.209,773.32C220.375,766.666 217.316,759.18 219.521,746.694C221.726,734.208 246.281,601.55 249.767,581.833Z" style="fill:none;stroke:rgb(21,27,34);stroke-width:25px;"/>
        <g transform="matrix(1,0,0,1,545.221,61.3785)">
            <path d="M50.218,19.127C102.578,28.99 123.166,39.959 129.575,44.255C136.873,49.147 146.329,55.944 145.471,63.239C144.765,69.236 141.063,82.552 138.778,101.688C133.209,148.324 130.434,152.012 129.575,198.942C129.531,201.197 129.618,248.067 129.575,250.323C129.469,255.755 129.674,281.658 129.575,287.09C148.627,283.5 162.02,272.832 204.851,285.119C218.924,289.156 227.587,294.354 233.145,307.625C235.564,321.288 233.684,324.286 230.73,333.406C228.306,340.89 221.473,348.9 214.708,352.833C212.557,352.838 164.625,333.641 119.47,333.406C-15.434,332.703 -253.799,346.71 -254.213,346.615C-271.17,342.153 -299.684,329.613 -312.096,317.433C-312.758,316.797 -313.419,316.16 -314.1,315.504C-320.374,308.972 -319.976,303.523 -318.239,294.565C-317.295,289.699 -311.428,285.372 -305.776,284.683C-297.817,283.713 -283.734,284.653 -268.708,285.524C-258.794,286.252 -220.9,293.063 -215.133,293.496C-215.421,275.611 -215.557,239.495 -215.896,221.611C-215.951,218.715 -221.789,121.606 -230.153,76.837C-233.515,58.683 -236.041,59.287 -230.01,52.691C-225.234,47.468 -200.74,36.083 -195.823,34.451C-171.888,26.506 -140.823,16.415 -74.678,11.107C-45.398,8.757 7.098,11.004 50.218,19.127Z" style="fill-rule:nonzero;"/>
        </g>
        <path d="M598.971,76.968C598.971,76.968 581.965,202.307 580.184,242.908C578.403,283.509 576.649,365.17 576.649,365.17L414.624,370.305L397.01,213.843L389.906,116.681L392.346,78.465L598.971,76.968Z" style="fill:rgb(45,51,59);"/>
        <path d="M438.87,71.605L437.56,370.305L330.089,360.559L330.089,281.918L317.917,166.097L313.767,117.403L344.994,104.158L377.677,88.024L438.87,71.605Z" style="fill:rgb(80,89,96);"/>
        <path d="M308.918,116.978L340.093,104.158C340.093,104.158 354.117,183.024 357.562,237.44C361.006,291.856 360.005,360.559 360.005,360.559L326.652,357.842L325.145,313.807L323.598,242.908L312.715,152.338L308.918,116.978Z" style="fill:rgb(54,60,68);"/>
        <g transform="matrix(1,0,0,1,545.221,61.3785)">
            <path d="M50.218,19.127C102.578,28.99 123.166,39.959 129.575,44.255C136.873,49.147 146.329,55.944 145.471,63.239C144.765,69.236 141.063,82.552 138.778,101.688C133.209,148.324 130.434,152.012 129.575,198.942C129.531,201.197 129.618,248.067 129.575,250.323C129.469,255.755 129.674,281.658 129.575,287.09C148.627,283.5 162.02,272.832 204.851,285.119C218.924,289.156 227.587,294.354 233.145,307.625C235.564,321.288 233.684,324.286 230.73,333.406C228.306,340.89 221.473,348.9 214.708,352.833C212.557,352.838 164.625,333.641 119.47,333.406C-15.434,332.703 -253.799,346.71 -254.213,346.615C-271.17,342.153 -299.684,329.613 -312.096,317.433C-312.758,316.797 -313.419,316.16 -314.1,315.504C-320.374,308.972 -319.976,303.523 -318.239,294.565C-317.295,289.699 -311.428,285.372 -305.776,284.683C-297.817,283.713 -283.734,284.653 -268.708,285.524C-258.794,286.252 -220.9,293.063 -215.133,293.496C-215.421,275.611 -215.557,239.495 -215.896,221.611C-215.951,218.715 -221.789,121.606 -230.153,76.837C-233.515,58.683 -236.041,59.287 -230.01,52.691C-225.234,47.468 -200.74,36.083 -195.823,34.451C-171.888,26.506 -140.823,16.415 -74.678,11.107C-45.398,8.757 7.098,11.004 50.218,19.127Z" style="fill:none;fill-rule:nonzero;stroke:black;stroke-width:25px;stroke-linecap:butt;stroke-miterlimit:2;"/>
        </g>
        <path d="M330.089,354.875C330.089,354.875 428.042,371.331 490.922,370.255C553.801,369.178 673.334,350.813 673.334,350.813" style="fill:none;stroke:black;stroke-width:25px;"/>
        <g transform="matrix(2.04794,0,0,-2.04794,244.553,401.125)">
            <path d="M227.917,24.361C233.169,25.174 239.602,23.319 239.602,23.319C230.355,19.513 220.958,17.032 212.593,14.677C208.669,13.572 184.533,7.906 176.879,6.556C136.925,-0.495 98.782,-0.305 58.568,4.163C42.728,5.923 30.086,9.333 15.111,11.976C9.451,12.975 2.514,13.281 1,20.081C5.863,21.943 25.125,17.246 29.809,16.419C50.525,12.763 71.471,9.472 92.553,8.362C94.663,8.251 110.473,7.874 114.037,7.874C135.696,7.874 156.416,9.781 177.709,13.538C183.779,14.609 199.377,18.166 205.426,19.231C211.11,20.233 222.274,23.486 227.917,24.361Z" style="fill:rgb(56,63,71);fill-rule:nonzero;"/>
        </g>
        <path d="M330.089,306.726C330.089,306.726 393.553,285.299 512,286.484C630.447,287.67 673.302,301.723 673.302,301.723" style="fill:none;stroke:black;stroke-width:20px;"/>
        <g transform="matrix(1,0,0,1,433,667)">
            <path d="M-135,31C-134.67,30.34 0.83,-14.81 0.83,-14.81C0.83,-14.81 154.375,31.174 164.946,20.179C161.244,33.064 139.203,57.5 112.135,63.127C84.901,68.789 63.001,59.715 44.9,51.458C22.258,41.13 3.183,18.588 3.183,18.588C3.183,18.588 -11.398,32.209 -21.362,37.457C-37.006,45.697 -58.299,51.448 -81.287,51.63C-104.706,51.816 -125.878,38.302 -135,31Z" style="fill:rgb(161,165,166);fill-rule:nonzero;"/>
        </g>
        <g transform="matrix(1,0,0,1,437.309,610.715)">
            <path d="M0,0C0.558,0.424 1.116,0.848 1.691,1.285C2.418,0.826 3.145,0.367 3.895,-0.105C18.984,-9.314 34.246,-13.33 51.691,-9.152C69.055,-4.584 81.163,1.355 93.691,20.285C101.508,32.096 110.191,41.467 128.445,44.73C134.927,45.889 143.738,43.71 147.691,40.285C151.645,36.861 152.359,30.23 152.164,24.184C151.565,20.513 150.814,18.541 148.016,12.645C147.151,10.821 147.412,10.034 147.691,9.285C148.021,8.955 147.351,9.625 147.691,9.285C156.16,9.731 161.262,9.53 168.691,18.285C171.973,22.153 173.251,24.873 174.141,26.238C179.328,36.43 179.39,49.52 176.204,60.373C173.974,67.062 170.27,74.57 162.499,81.676C141.044,101.293 116.734,106.348 96.848,107.539C75.391,108.823 52.666,104.283 28.691,87.285C15.87,78.194 2.48,69.135 -4.309,59.285C-4.309,58.625 -3.629,59.285 -4.309,59.285C-4.584,59.881 -4.024,58.672 -4.309,59.285C-11.632,73.097 -37.785,87.18 -63.158,93.951C-83.398,99.353 -116.594,98.659 -132.497,92.424C-150.688,85.293 -162.81,68.767 -167.266,57.023C-170.979,47.236 -171.71,34.854 -169.857,25.727C-167.439,13.819 -159.496,5.67 -154.786,2.553C-151.55,0.412 -143.367,-1.97 -139.406,-1.815C-140.096,1.697 -140.659,1.519 -141.965,3.542C-144.27,7.112 -145.528,18.622 -144.309,23.285C-143.169,27.644 -138.86,31.471 -134.492,32.578C-129.846,33.755 -122.917,33.391 -116.434,30.348C-109.662,26.838 -104.014,22.334 -98.309,17.285C-69.511,-7.636 -34.699,-25.775 0,0Z" style="fill:rgb(23,28,34);fill-rule:nonzero;"/>
        </g>
        <g transform="matrix(1,0,0,1,-8,-2)">
            <path d="M558.622,446.355C595.257,450.802 623.679,482.042 623.679,519.869C623.679,557.696 595.257,588.937 558.622,593.383" style="fill:none;stroke:rgb(158,162,165);stroke-width:23px;"/>
        </g>
        <g transform="matrix(1,0,0,1,6,-1)">
            <circle cx="549.622" cy="519.869" r="74.057" style="fill:none;stroke:rgb(158,162,165);stroke-width:23px;"/>
        </g>
        <g transform="matrix(1,0,0,1,1,-2)">
            <circle cx="549.622" cy="519.869" r="74.057" style="fill-opacity:0.25;"/>
        </g>
        <g transform="matrix(1,0,0,1,6,-2)">
            <path d="M497.452,533.078C497.277,531.225 497.187,529.347 497.187,527.449C497.187,496.077 521.623,470.368 552.483,468.333C540.92,494.614 521.679,517.054 497.452,533.078Z" style="fill:white;fill-opacity:0.55;"/>
        </g>
        <g transform="matrix(1,0,0,1,1,-2)">
            <circle cx="549.622" cy="519.869" r="74.057" style="fill:none;stroke:black;stroke-width:23px;"/>
        </g>
        <g transform="matrix(2.50511,0,0,2.77089,-986.638,-915.984)">
            <circle cx="650.835" cy="519.223" r="7.223"/>
        </g>
        <path d="M643.774,522.727C643.774,522.727 649.89,632.434 651.992,677.156C654.376,727.893 656.203,753.159 657.87,766.883C658.825,774.749 663.733,787.747 665.87,795.626C669.463,808.879 674.149,813.345 680.56,825.357C689.917,842.89 707.533,865.568 727.342,890.16C737.02,902.175 750.047,920.375 750.047,920.375" style="fill:none;stroke:black;stroke-width:18px;"/>
    </g>
</svg>
